<?xml version="1.0" encoding="utf-8"?>
<!-- Generator: Adobe Illustrator 24.1.0, SVG Export Plug-In . SVG Version: 6.00 Build 0)  -->
<svg version="1.1" id="Capa_1" xmlns="http://www.w3.org/2000/svg" xmlns:xlink="http://www.w3.org/1999/xlink" x="0px" y="0px"
	 viewBox="0 0 1366 768" style="enable-background:new 0 0 1366 768;" xml:space="preserve">
<style type="text/css">
	.st0{fill:#E7F0F8;}
	.st1{fill:#FF3939;}
	.st2{fill:#34455E;}
	.st3{opacity:0.15;}
	.st4{opacity:0.51;fill:url(#SVGID_1_);}
	.st5{fill:#FFFFFF;}
	.st6{opacity:0.51;fill:url(#SVGID_2_);}
	.st7{opacity:0.84;fill:url(#SVGID_3_);}
</style>
<rect x="154.77" y="34.4" class="st0" width="699.49" height="699.49"/>
<rect x="854.26" y="384.14" class="st1" width="349.74" height="349.74"/>
<rect x="854.26" y="34.4" class="st2" width="349.74" height="349.74"/>
<path class="st3" d="M406.59,311.53H251.76v88.11h0.02c0,0.28-0.02,0.56-0.02,0.85c0,42.75,34.66,77.41,77.41,77.41
	s77.41-34.66,77.41-77.41c0-0.28-0.02-0.56-0.02-0.85h0.02V311.53z"/>
<path class="st1" d="M406.59,300.67H251.76v88.11h0.02c0,0.28-0.02,0.56-0.02,0.85c0,42.75,34.66,77.41,77.41,77.41
	s77.41-34.66,77.41-77.41c0-0.28-0.02-0.56-0.02-0.85h0.02V300.67z"/>
<g>
	<g>
		<path class="st2" d="M437.25,377.25h16.16v66.33h-16.16V377.25z"/>
		<path class="st2" d="M459.29,419.3c0-17,12.15-25.23,22.98-25.23c8.5,0,13.08,4.67,13.45,5.51h0.28V395h16.16v48.58h-16.16v-4.58
			h-0.28c-0.37,0.84-4.95,5.51-13.45,5.51C471.44,444.52,459.29,436.3,459.29,419.3z M496.38,419.3c0-6.91-4.86-10.93-10.65-10.93
			c-5.61,0-10.56,4.11-10.56,10.93s4.95,10.93,10.56,10.93C491.53,430.23,496.38,426.21,496.38,419.3z"/>
		<path class="st2" d="M552.07,429.2v12.24c-1.87,2.05-6.26,2.71-9.9,2.71c-9.72,0-16.72-4.67-16.72-16.82v-19.62h-7.38V395h7.38
			v-12.43h16.16V395h10.28v12.71H541.6v17.19c0,2.24,1.31,5.04,5.89,5.04C548.61,429.95,550.38,429.76,552.07,429.2z"/>
		<path class="st2" d="M555.43,419.3c0-17,12.15-25.23,22.98-25.23c8.5,0,13.08,4.67,13.45,5.51h0.28V395h16.16v48.58h-16.16v-4.58
			h-0.28c-0.37,0.84-4.95,5.51-13.45,5.51C567.58,444.52,555.43,436.3,555.43,419.3z M592.52,419.3c0-6.91-4.86-10.93-10.65-10.93
			c-5.61,0-10.56,4.11-10.56,10.93s4.95,10.93,10.56,10.93C587.66,430.23,592.52,426.21,592.52,419.3z"/>
		<path class="st2" d="M692.77,415.75v27.84h-16.16v-27.38c0-5.42-3.18-7.85-6.73-7.85c-3.92,0-7.19,2.43-7.19,7.85v27.38h-16.07
			v-27.38c0-5.42-3.27-7.85-6.82-7.85c-3.74,0-7.1,2.43-7.1,7.85v27.38h-16.16V395h16.16v5.61c2.62-3.92,7.01-6.54,13.17-6.54
			c5.51,0,10.28,2.24,13.36,7.19c3.08-4.21,8.41-7.19,15.7-7.19C685.29,394.07,692.77,400.61,692.77,415.75z"/>
	</g>
</g>
<g>
	<g>
		<path class="st2" d="M426.51,341.84c0-16.44,12.99-25.13,26.07-25.13c8.6,0,16.07,3.92,21.02,11.96l-11.68,7.66
			c-2.15-2.71-5.14-5.14-9.34-5.14c-5.61,0-10.18,4.3-10.18,10.65c0,6.54,4.58,10.84,10.18,10.84c4.2,0,7.19-2.43,9.34-5.14
			l11.68,7.66c-4.95,7.85-12.43,11.96-21.02,11.96C439.5,367.16,426.51,358.47,426.51,341.84z"/>
		<path class="st2" d="M475.65,341.94c0-16.54,13.17-25.23,25.97-25.23c12.71,0,25.88,8.69,25.88,25.23
			c0,16.54-13.17,25.23-25.88,25.23C488.83,367.16,475.65,358.47,475.65,341.94z M511.62,341.94c0-6.45-4.48-10.74-10-10.74
			c-5.61,0-10.09,4.3-10.09,10.74c0,6.45,4.48,10.74,10.09,10.74C507.14,352.68,511.62,348.38,511.62,341.94z"/>
		<path class="st2" d="M533.39,299.89h16.16v66.33h-16.16V299.89z"/>
		<path class="st2" d="M604.21,348.2h-32.98c1.96,3.92,6.17,5.89,11.77,5.89c3.92,0,7.47-0.75,11.02-3.18l7.1,7.57
			c-3.92,4.95-10.74,8.69-19.9,8.69c-13.64,0-25.79-9.16-25.79-25.13c0-16.44,12.33-25.32,24.95-25.32
			C592.72,316.71,607.57,325.21,604.21,348.2z M570.67,336.8h19.34c-1.12-4.58-5.33-6.63-9.44-6.63S572.35,332.22,570.67,336.8z"/>
		<path class="st2" d="M661.1,317.64v44.19c0,19.71-15.6,23.82-26.35,23.82c-4.95,0-10.84-0.65-14.11-2.8v-12.8
			c2.34,1.5,7.19,2.24,11.02,2.24c9.06,0,13.27-4.39,13.27-9.06v-1.59h-0.56c-0.37,0.84-4.77,5.51-12.99,5.51
			c-10.93,0-23.17-8.31-23.17-25.23c0-16.91,12.24-25.23,23.17-25.23c8.22,0,12.61,4.67,12.99,5.51h0.56v-4.58H661.1z
			 M645.31,341.94c0-6.91-4.77-10.93-10.56-10.93c-5.7,0-10.65,4.11-10.65,10.93s4.95,10.93,10.65,10.93
			C640.55,352.87,645.31,348.85,645.31,341.94z"/>
		<path class="st2" d="M669.32,299.89h16.16v13.92h-16.16V299.89z M669.32,317.64h16.16v48.58h-16.16V317.64z"/>
		<path class="st2" d="M691.37,341.94c0-16.54,13.17-25.23,25.97-25.23c12.71,0,25.88,8.69,25.88,25.23
			c0,16.54-13.17,25.23-25.88,25.23C704.54,367.16,691.37,358.47,691.37,341.94z M727.34,341.94c0-6.45-4.48-10.74-10-10.74
			c-5.61,0-10.09,4.3-10.09,10.74c0,6.45,4.48,10.74,10.09,10.74C722.86,352.68,727.34,348.38,727.34,341.94z"/>
	</g>
</g>
<linearGradient id="SVGID_1_" gradientUnits="userSpaceOnUse" x1="342.6706" y1="467.5296" x2="342.6706" y2="356.9675">
	<stop  offset="0.1844" style="stop-color:#000000;stop-opacity:0"/>
	<stop  offset="0.4032" style="stop-color:#230000;stop-opacity:0.2683"/>
	<stop  offset="0.6513" style="stop-color:#430000;stop-opacity:0.5724"/>
	<stop  offset="0.8592" style="stop-color:#570000;stop-opacity:0.8273"/>
	<stop  offset="1" style="stop-color:#5E0000"/>
</linearGradient>
<path class="st4" d="M379.89,448.11c-13.65,12.1-31.61,19.42-51.27,19.42c-8.06,0-15.85-1.23-23.16-3.52l0.16-107.04l7.55,0.72
	l24.11,7.81l28.18,10.19l13.91,4.12L379.89,448.11z"/>
<g>
	<path class="st5" d="M309.54,352.5c0.26,0.07,0.81,0.19,1.33,0.37c22.12,7.73,44.24,15.47,66.36,23.2
		c1.74,0.61,2.68,1.71,2.69,3.23c0.02,1.73-0.96,2.74-2.47,3.41c-9.21,4.08-18.42,8.18-27.63,12.25c-0.69,0.3-1.12,0.71-1.42,1.4
		c-4.09,9.25-8.21,18.48-12.3,27.72c-0.6,1.36-1.51,2.27-3.03,2.41c-1.65,0.15-2.93-0.84-3.6-2.76c-2.15-6.14-4.3-12.28-6.45-18.42
		c-5.53-15.81-11.08-31.62-16.57-47.45c-0.33-0.94-0.47-2.07-0.31-3.04C306.38,353.41,307.78,352.52,309.54,352.5z M314.76,361.36
		c6.18,17.67,12.26,35.04,18.42,52.62c0.25-0.52,0.4-0.82,0.54-1.13c3.06-6.87,6.14-13.74,9.16-20.63c0.59-1.34,1.47-2.2,2.81-2.78
		c6.76-2.96,13.5-5.98,20.25-8.98c0.43-0.19,0.86-0.4,1.48-0.68C349.8,373.62,332.44,367.55,314.76,361.36z"/>
	<path class="st5" d="M312.63,335.66c0,2.17,0.01,4.34,0,6.52c-0.02,2.06-1.42,3.57-3.33,3.59c-1.95,0.02-3.4-1.49-3.4-3.61
		c-0.01-4.31-0.01-8.62,0-12.93c0.01-2.13,1.43-3.65,3.38-3.64c1.95,0.01,3.34,1.51,3.35,3.66
		C312.63,331.38,312.63,333.52,312.63,335.66C312.63,335.66,312.63,335.66,312.63,335.66z"/>
	<path class="st5" d="M289.04,359.23c-2.14,0-4.28,0.01-6.41,0c-2.14-0.01-3.65-1.42-3.65-3.37c0-1.95,1.52-3.35,3.66-3.36
		c4.31-0.01,8.62-0.01,12.93,0c2.08,0.01,3.57,1.4,3.6,3.31c0.03,1.95-1.48,3.4-3.6,3.42C293.39,359.25,291.21,359.23,289.04,359.23
		C289.04,359.23,289.04,359.23,289.04,359.23z"/>
	<path class="st5" d="M287.16,337.4c0.24-1.49,0.87-2.54,2.12-3.11c1.28-0.59,2.6-0.49,3.62,0.5c2.96,2.88,5.88,5.8,8.76,8.76
		c1.29,1.33,1.15,3.37-0.15,4.63c-1.27,1.23-3.26,1.33-4.56,0.08c-2.94-2.85-5.83-5.75-8.68-8.69
		C287.73,339.01,287.52,338.13,287.16,337.4z"/>
	<path class="st5" d="M319.78,349.14c-1.72-0.14-2.8-0.69-3.39-1.96c-0.6-1.29-0.51-2.6,0.47-3.62c2.85-2.94,5.74-5.83,8.68-8.68
		c1.28-1.24,3.31-1.11,4.56,0.13c1.28,1.27,1.4,3.33,0.12,4.64c-2.83,2.91-5.7,5.77-8.62,8.59
		C321.05,348.75,320.19,348.94,319.78,349.14z"/>
	<path class="st5" d="M302.54,366.43c-0.25,0.45-0.52,1.36-1.11,1.98c-2.69,2.8-5.45,5.53-8.22,8.25c-1.4,1.38-3.47,1.37-4.8,0.03
		c-1.32-1.33-1.33-3.39,0.06-4.8c2.73-2.76,5.48-5.5,8.24-8.23c1.08-1.06,2.37-1.32,3.76-0.73
		C301.8,363.5,302.4,364.59,302.54,366.43z"/>
</g>
<path class="st3" d="M992.48,186.14h-81.62v46.45h0.01c0,0.15-0.01,0.3-0.01,0.45c0,22.54,18.27,40.81,40.81,40.81
	c22.54,0,40.81-18.27,40.81-40.81c0-0.15-0.01-0.3-0.01-0.45h0.01V186.14z"/>
<path class="st1" d="M992.48,180.41h-81.62v46.45h0.01c0,0.15-0.01,0.3-0.01,0.45c0,22.54,18.27,40.81,40.81,40.81
	c22.54,0,40.81-18.27,40.81-40.81c0-0.15-0.01-0.3-0.01-0.45h0.01V180.41z"/>
<g>
	<g>
		<path class="st5" d="M1008.64,220.78h8.52v34.97h-8.52V220.78z"/>
		<path class="st5" d="M1020.26,242.94c0-8.96,6.4-13.3,12.12-13.3c4.48,0,6.9,2.46,7.09,2.91h0.15v-2.41h8.52v25.61h-8.52v-2.41
			h-0.15c-0.2,0.44-2.61,2.91-7.09,2.91C1026.66,256.24,1020.26,251.91,1020.26,242.94z M1039.82,242.94c0-3.65-2.56-5.76-5.62-5.76
			c-2.96,0-5.57,2.17-5.57,5.76c0,3.6,2.61,5.76,5.57,5.76C1037.25,248.71,1039.82,246.59,1039.82,242.94z"/>
		<path class="st5" d="M1069.17,248.17v6.45c-0.99,1.08-3.3,1.43-5.22,1.43c-5.12,0-8.82-2.46-8.82-8.87v-10.34h-3.89v-6.7h3.89
			v-6.55h8.52v6.55h5.42v6.7h-5.42v9.06c0,1.18,0.69,2.66,3.1,2.66C1067.35,248.56,1068.28,248.46,1069.17,248.17z"/>
		<path class="st5" d="M1070.94,242.94c0-8.96,6.4-13.3,12.12-13.3c4.48,0,6.9,2.46,7.09,2.91h0.15v-2.41h8.52v25.61h-8.52v-2.41
			h-0.15c-0.2,0.44-2.61,2.91-7.09,2.91C1077.34,256.24,1070.94,251.91,1070.94,242.94z M1090.5,242.94c0-3.65-2.56-5.76-5.62-5.76
			c-2.96,0-5.57,2.17-5.57,5.76c0,3.6,2.61,5.76,5.57,5.76C1087.93,248.71,1090.5,246.59,1090.5,242.94z"/>
		<path class="st5" d="M1143.34,241.07v14.68h-8.52v-14.43c0-2.86-1.67-4.14-3.55-4.14c-2.07,0-3.79,1.28-3.79,4.14v14.43h-8.47
			v-14.43c0-2.86-1.72-4.14-3.6-4.14c-1.97,0-3.74,1.28-3.74,4.14v14.43h-8.52v-25.61h8.52v2.96c1.38-2.07,3.69-3.45,6.95-3.45
			c2.91,0,5.42,1.18,7.04,3.79c1.63-2.22,4.43-3.79,8.28-3.79C1139.4,229.65,1143.34,233.09,1143.34,241.07z"/>
	</g>
</g>
<g>
	<g>
		<path class="st5" d="M1002.98,202.11c0-8.67,6.85-13.25,13.74-13.25c4.53,0,8.47,2.07,11.08,6.3l-6.16,4.04
			c-1.13-1.43-2.71-2.71-4.93-2.71c-2.96,0-5.37,2.27-5.37,5.62c0,3.45,2.41,5.71,5.37,5.71c2.22,0,3.79-1.28,4.93-2.71l6.16,4.04
			c-2.61,4.14-6.55,6.3-11.08,6.3C1009.83,215.46,1002.98,210.88,1002.98,202.11z"/>
		<path class="st5" d="M1028.89,202.16c0-8.72,6.95-13.3,13.69-13.3c6.7,0,13.64,4.58,13.64,13.3c0,8.72-6.95,13.3-13.64,13.3
			C1035.83,215.46,1028.89,210.88,1028.89,202.16z M1047.85,202.16c0-3.4-2.36-5.66-5.27-5.66c-2.96,0-5.32,2.27-5.32,5.66
			c0,3.4,2.36,5.66,5.32,5.66C1045.49,207.83,1047.85,205.56,1047.85,202.16z"/>
		<path class="st5" d="M1059.32,180h8.52v34.97h-8.52V180z"/>
		<path class="st5" d="M1096.66,205.46h-17.39c1.03,2.07,3.25,3.1,6.21,3.1c2.07,0,3.94-0.39,5.81-1.67l3.74,3.99
			c-2.07,2.61-5.66,4.58-10.49,4.58c-7.19,0-13.59-4.83-13.59-13.25c0-8.67,6.5-13.35,13.15-13.35
			C1090.6,188.86,1098.43,193.35,1096.66,205.46z M1078.97,199.45h10.2c-0.59-2.41-2.81-3.5-4.97-3.5S1079.86,197.04,1078.97,199.45
			z"/>
		<path class="st5" d="M1126.65,189.36v23.3c0,10.39-8.23,12.56-13.89,12.56c-2.61,0-5.71-0.34-7.44-1.48v-6.75
			c1.23,0.79,3.79,1.18,5.81,1.18c4.78,0,6.99-2.31,6.99-4.78v-0.84h-0.29c-0.2,0.44-2.51,2.91-6.85,2.91
			c-5.76,0-12.22-4.38-12.22-13.3c0-8.92,6.45-13.3,12.22-13.3c4.33,0,6.65,2.46,6.85,2.91h0.29v-2.41H1126.65z M1118.32,202.16
			c0-3.65-2.51-5.76-5.57-5.76c-3,0-5.62,2.17-5.62,5.76c0,3.6,2.61,5.76,5.62,5.76C1115.81,207.93,1118.32,205.81,1118.32,202.16z"
			/>
		<path class="st5" d="M1130.98,180h8.52v7.34h-8.52V180z M1130.98,189.36h8.52v25.61h-8.52V189.36z"/>
		<path class="st5" d="M1142.6,202.16c0-8.72,6.95-13.3,13.69-13.3c6.7,0,13.64,4.58,13.64,13.3c0,8.72-6.95,13.3-13.64,13.3
			C1149.55,215.46,1142.6,210.88,1142.6,202.16z M1161.57,202.16c0-3.4-2.36-5.66-5.27-5.66c-2.96,0-5.32,2.27-5.32,5.66
			c0,3.4,2.36,5.66,5.32,5.66C1159.2,207.83,1161.57,205.56,1161.57,202.16z"/>
	</g>
</g>
<linearGradient id="SVGID_2_" gradientUnits="userSpaceOnUse" x1="958.7826" y1="268.3715" x2="958.7826" y2="210.0878">
	<stop  offset="0.1844" style="stop-color:#000000;stop-opacity:0"/>
	<stop  offset="0.4032" style="stop-color:#230000;stop-opacity:0.2683"/>
	<stop  offset="0.6513" style="stop-color:#430000;stop-opacity:0.5724"/>
	<stop  offset="0.8592" style="stop-color:#570000;stop-opacity:0.8273"/>
	<stop  offset="1" style="stop-color:#5E0000"/>
</linearGradient>
<path class="st6" d="M978.4,258.13c-7.2,6.38-16.66,10.24-27.03,10.24c-4.25,0-8.35-0.65-12.21-1.86l0.08-56.43l3.98,0.38
	l12.71,4.12l14.86,5.37l7.33,2.17L978.4,258.13z"/>
<g>
	<path class="st5" d="M941.32,207.74c0.14,0.04,0.43,0.1,0.7,0.2c11.66,4.08,23.32,8.15,34.98,12.23c0.92,0.32,1.41,0.9,1.42,1.7
		c0.01,0.91-0.51,1.45-1.3,1.8c-4.86,2.15-9.71,4.31-14.57,6.46c-0.36,0.16-0.59,0.37-0.75,0.74c-2.15,4.87-4.33,9.74-6.48,14.61
		c-0.32,0.72-0.8,1.2-1.6,1.27c-0.87,0.08-1.54-0.44-1.9-1.46c-1.14-3.24-2.27-6.47-3.4-9.71c-2.92-8.34-5.84-16.67-8.73-25.01
		c-0.17-0.5-0.25-1.09-0.16-1.6C939.65,208.21,940.39,207.74,941.32,207.74z M944.07,212.4c3.26,9.31,6.46,18.47,9.71,27.74
		c0.13-0.27,0.21-0.43,0.28-0.59c1.61-3.62,3.24-7.24,4.83-10.87c0.31-0.71,0.78-1.16,1.48-1.47c3.57-1.56,7.12-3.15,10.67-4.73
		c0.23-0.1,0.45-0.21,0.78-0.36C962.54,218.87,953.39,215.67,944.07,212.4z"/>
	<path class="st5" d="M942.95,198.85c0,1.15,0.01,2.29,0,3.44c-0.01,1.09-0.75,1.88-1.75,1.89c-1.03,0.01-1.79-0.79-1.79-1.91
		c-0.01-2.27-0.01-4.54,0-6.82c0-1.12,0.75-1.92,1.78-1.92c1.03,0,1.76,0.8,1.77,1.93C942.95,196.6,942.94,197.73,942.95,198.85
		C942.95,198.85,942.95,198.85,942.95,198.85z"/>
	<path class="st5" d="M930.51,211.28c-1.13,0-2.25,0-3.38,0c-1.13-0.01-1.93-0.75-1.92-1.77c0-1.03,0.8-1.77,1.93-1.77
		c2.27,0,4.54-0.01,6.82,0c1.09,0,1.88,0.74,1.9,1.74c0.01,1.03-0.78,1.79-1.9,1.8C932.8,211.29,931.66,211.28,930.51,211.28
		C930.51,211.28,930.51,211.28,930.51,211.28z"/>
	<path class="st5" d="M929.52,199.77c0.13-0.79,0.46-1.34,1.12-1.64c0.68-0.31,1.37-0.26,1.91,0.27c1.56,1.52,3.1,3.06,4.62,4.62
		c0.68,0.7,0.61,1.78-0.08,2.44c-0.67,0.65-1.72,0.7-2.4,0.04c-1.55-1.5-3.08-3.03-4.57-4.58
		C929.82,200.62,929.71,200.16,929.52,199.77z"/>
	<path class="st5" d="M946.71,205.96c-0.91-0.07-1.48-0.37-1.79-1.03c-0.32-0.68-0.27-1.37,0.25-1.91c1.5-1.55,3.02-3.08,4.57-4.58
		c0.68-0.65,1.74-0.58,2.4,0.07c0.68,0.67,0.74,1.75,0.06,2.45c-1.49,1.53-3.01,3.04-4.55,4.53
		C947.39,205.76,946.93,205.85,946.71,205.96z"/>
	<path class="st5" d="M937.63,215.08c-0.13,0.24-0.28,0.72-0.59,1.04c-1.42,1.48-2.87,2.91-4.33,4.35
		c-0.74,0.73-1.83,0.72-2.53,0.02c-0.7-0.7-0.7-1.79,0.03-2.53c1.44-1.46,2.89-2.9,4.34-4.34c0.57-0.56,1.25-0.7,1.98-0.38
		C937.24,213.53,937.55,214.11,937.63,215.08z"/>
</g>
<path class="st3" d="M992.48,529.75h-81.62v46.45h0.01c0,0.15-0.01,0.3-0.01,0.45c0,22.54,18.27,40.81,40.81,40.81
	c22.54,0,40.81-18.27,40.81-40.81c0-0.15-0.01-0.3-0.01-0.45h0.01V529.75z"/>
<path class="st5" d="M992.48,524.02h-81.62v46.45h0.01c0,0.15-0.01,0.3-0.01,0.45c0,22.54,18.27,40.81,40.81,40.81
	c22.54,0,40.81-18.27,40.81-40.81c0-0.15-0.01-0.3-0.01-0.45h0.01V524.02z"/>
<g>
	<g>
		<path class="st5" d="M1008.64,564.39h8.52v34.97h-8.52V564.39z"/>
		<path class="st5" d="M1020.26,586.55c0-8.96,6.4-13.3,12.12-13.3c4.48,0,6.9,2.46,7.09,2.91h0.15v-2.41h8.52v25.61h-8.52v-2.41
			h-0.15c-0.2,0.44-2.61,2.91-7.09,2.91C1026.66,599.85,1020.26,595.52,1020.26,586.55z M1039.82,586.55c0-3.64-2.56-5.76-5.62-5.76
			c-2.96,0-5.57,2.17-5.57,5.76s2.61,5.76,5.57,5.76C1037.25,592.32,1039.82,590.2,1039.82,586.55z"/>
		<path class="st5" d="M1069.17,591.78v6.45c-0.99,1.08-3.3,1.43-5.22,1.43c-5.12,0-8.82-2.46-8.82-8.87v-10.34h-3.89v-6.7h3.89
			v-6.55h8.52v6.55h5.42v6.7h-5.42v9.06c0,1.18,0.69,2.66,3.1,2.66C1067.35,592.17,1068.28,592.07,1069.17,591.78z"/>
		<path class="st5" d="M1070.94,586.55c0-8.96,6.4-13.3,12.12-13.3c4.48,0,6.9,2.46,7.09,2.91h0.15v-2.41h8.52v25.61h-8.52v-2.41
			h-0.15c-0.2,0.44-2.61,2.91-7.09,2.91C1077.34,599.85,1070.94,595.52,1070.94,586.55z M1090.5,586.55c0-3.64-2.56-5.76-5.62-5.76
			c-2.96,0-5.57,2.17-5.57,5.76s2.61,5.76,5.57,5.76C1087.93,592.32,1090.5,590.2,1090.5,586.55z"/>
		<path class="st5" d="M1143.34,584.68v14.68h-8.52v-14.43c0-2.86-1.67-4.14-3.55-4.14c-2.07,0-3.79,1.28-3.79,4.14v14.43h-8.47
			v-14.43c0-2.86-1.72-4.14-3.6-4.14c-1.97,0-3.74,1.28-3.74,4.14v14.43h-8.52v-25.61h8.52v2.96c1.38-2.07,3.69-3.45,6.95-3.45
			c2.91,0,5.42,1.18,7.04,3.79c1.63-2.22,4.43-3.79,8.28-3.79C1139.4,573.26,1143.34,576.7,1143.34,584.68z"/>
	</g>
</g>
<g>
	<g>
		<path class="st5" d="M1002.98,545.72c0-8.67,6.85-13.25,13.74-13.25c4.53,0,8.47,2.07,11.08,6.3l-6.16,4.04
			c-1.13-1.43-2.71-2.71-4.93-2.71c-2.96,0-5.37,2.27-5.37,5.62c0,3.45,2.41,5.71,5.37,5.71c2.22,0,3.79-1.28,4.93-2.71l6.16,4.04
			c-2.61,4.14-6.55,6.3-11.08,6.3C1009.83,559.07,1002.98,554.49,1002.98,545.72z"/>
		<path class="st5" d="M1028.89,545.77c0-8.72,6.95-13.3,13.69-13.3c6.7,0,13.64,4.58,13.64,13.3c0,8.72-6.95,13.3-13.64,13.3
			C1035.83,559.07,1028.89,554.49,1028.89,545.77z M1047.85,545.77c0-3.4-2.36-5.66-5.27-5.66c-2.96,0-5.32,2.27-5.32,5.66
			s2.36,5.67,5.32,5.67C1045.49,551.44,1047.85,549.17,1047.85,545.77z"/>
		<path class="st5" d="M1059.32,523.61h8.52v34.97h-8.52V523.61z"/>
		<path class="st5" d="M1096.66,549.07h-17.39c1.03,2.07,3.25,3.1,6.21,3.1c2.07,0,3.94-0.39,5.81-1.67l3.74,3.99
			c-2.07,2.61-5.66,4.58-10.49,4.58c-7.19,0-13.59-4.83-13.59-13.25c0-8.67,6.5-13.35,13.15-13.35
			C1090.6,532.47,1098.43,536.96,1096.66,549.07z M1078.97,543.06h10.2c-0.59-2.41-2.81-3.5-4.97-3.5S1079.86,540.65,1078.97,543.06
			z"/>
		<path class="st5" d="M1126.65,532.97v23.3c0,10.39-8.23,12.56-13.89,12.56c-2.61,0-5.71-0.34-7.44-1.48v-6.75
			c1.23,0.79,3.79,1.18,5.81,1.18c4.78,0,6.99-2.31,6.99-4.78v-0.84h-0.29c-0.2,0.44-2.51,2.91-6.85,2.91
			c-5.76,0-12.22-4.38-12.22-13.3s6.45-13.3,12.22-13.3c4.33,0,6.65,2.46,6.85,2.91h0.29v-2.41H1126.65z M1118.32,545.77
			c0-3.64-2.51-5.76-5.57-5.76c-3,0-5.62,2.17-5.62,5.76s2.61,5.76,5.62,5.76C1115.81,551.54,1118.32,549.42,1118.32,545.77z"/>
		<path class="st5" d="M1130.98,523.61h8.52v7.34h-8.52V523.61z M1130.98,532.97h8.52v25.61h-8.52V532.97z"/>
		<path class="st5" d="M1142.6,545.77c0-8.72,6.95-13.3,13.69-13.3c6.7,0,13.64,4.58,13.64,13.3c0,8.72-6.95,13.3-13.64,13.3
			C1149.55,559.07,1142.6,554.49,1142.6,545.77z M1161.57,545.77c0-3.4-2.36-5.66-5.27-5.66c-2.96,0-5.32,2.27-5.32,5.66
			s2.36,5.67,5.32,5.67C1159.2,551.44,1161.57,549.17,1161.57,545.77z"/>
	</g>
</g>
<linearGradient id="SVGID_3_" gradientUnits="userSpaceOnUse" x1="958.7826" y1="611.9822" x2="958.7826" y2="553.6984">
	<stop  offset="0.1844" style="stop-color:#FF3939;stop-opacity:0"/>
	<stop  offset="1" style="stop-color:#FF3939;stop-opacity:0.4"/>
</linearGradient>
<path class="st7" d="M978.4,601.74c-7.2,6.38-16.66,10.24-27.03,10.24c-4.25,0-8.35-0.65-12.21-1.86l0.08-56.43l3.98,0.38
	l12.71,4.12l14.86,5.37l7.33,2.17L978.4,601.74z"/>
<g>
	<g>
		<path class="st1" d="M941.32,551.35c0.14,0.04,0.43,0.1,0.7,0.2c11.66,4.08,23.32,8.15,34.98,12.23c0.92,0.32,1.41,0.9,1.42,1.7
			c0.01,0.91-0.51,1.45-1.3,1.8c-4.86,2.15-9.71,4.31-14.57,6.46c-0.36,0.16-0.59,0.37-0.75,0.74c-2.15,4.87-4.33,9.74-6.48,14.61
			c-0.32,0.72-0.8,1.2-1.6,1.27c-0.87,0.08-1.54-0.44-1.9-1.46c-1.14-3.24-2.27-6.47-3.4-9.71c-2.92-8.34-5.84-16.67-8.73-25.01
			c-0.17-0.5-0.25-1.09-0.16-1.6C939.65,551.83,940.39,551.35,941.32,551.35z M944.07,556.02c3.26,9.31,6.46,18.47,9.71,27.74
			c0.13-0.27,0.21-0.43,0.28-0.59c1.61-3.62,3.24-7.24,4.83-10.87c0.31-0.71,0.78-1.16,1.48-1.47c3.57-1.56,7.12-3.15,10.67-4.73
			c0.23-0.1,0.45-0.21,0.78-0.36C962.54,562.48,953.39,559.28,944.07,556.02z"/>
		<path class="st1" d="M942.95,542.47c0,1.15,0.01,2.29,0,3.44c-0.01,1.09-0.75,1.88-1.75,1.89c-1.03,0.01-1.79-0.79-1.79-1.91
			c-0.01-2.27-0.01-4.54,0-6.82c0-1.12,0.75-1.92,1.78-1.92c1.03,0,1.76,0.8,1.77,1.93C942.95,540.21,942.94,541.34,942.95,542.47
			C942.95,542.47,942.95,542.47,942.95,542.47z"/>
		<path class="st1" d="M930.51,554.89c-1.13,0-2.25,0-3.38,0c-1.13-0.01-1.93-0.75-1.92-1.77c0-1.03,0.8-1.77,1.93-1.77
			c2.27,0,4.54-0.01,6.82,0c1.09,0,1.88,0.74,1.9,1.74c0.01,1.03-0.78,1.79-1.9,1.8C932.8,554.9,931.66,554.89,930.51,554.89
			C930.51,554.89,930.51,554.89,930.51,554.89z"/>
		<path class="st1" d="M929.52,543.38c0.13-0.79,0.46-1.34,1.12-1.64c0.68-0.31,1.37-0.26,1.91,0.27c1.56,1.52,3.1,3.06,4.62,4.62
			c0.68,0.7,0.61,1.78-0.08,2.44c-0.67,0.65-1.72,0.7-2.4,0.04c-1.55-1.5-3.08-3.03-4.57-4.58
			C929.82,544.23,929.71,543.77,929.52,543.38z"/>
		<path class="st1" d="M946.71,549.57c-0.91-0.07-1.48-0.37-1.79-1.03c-0.32-0.68-0.27-1.37,0.25-1.91c1.5-1.55,3.02-3.08,4.57-4.58
			c0.68-0.65,1.74-0.58,2.4,0.07c0.68,0.67,0.74,1.75,0.06,2.45c-1.49,1.53-3.01,3.04-4.55,4.53
			C947.39,549.37,946.93,549.47,946.71,549.57z"/>
		<path class="st1" d="M937.63,558.69c-0.13,0.24-0.28,0.72-0.59,1.04c-1.42,1.48-2.87,2.91-4.33,4.35
			c-0.74,0.73-1.83,0.72-2.53,0.02c-0.7-0.7-0.7-1.79,0.03-2.53c1.44-1.46,2.89-2.9,4.34-4.34c0.57-0.56,1.25-0.7,1.98-0.38
			C937.24,557.14,937.55,557.72,937.63,558.69z"/>
	</g>
</g>
</svg>
